<svg width="72" height="71" viewBox="0 0 72 71" fill="none" xmlns="http://www.w3.org/2000/svg">
<path d="M42.5424 56.7248L25.2539 46.9013L26.9667 43.9854L44.2518 53.8089L42.5424 56.7248Z" fill="#212B51"/>
<path d="M60.1827 62.3172C65.1757 57.6777 68.3395 51.1595 68.3395 43.8845C68.3395 34.9212 63.5546 26.8367 56.1144 22.2962L64.4501 8.10045L63.1409 7.35799L65.1969 3.84041L59.8071 0.779297L57.7466 4.29138L56.3682 3.50823L35.8755 38.4333L37.6654 39.4496L35.1242 43.7746L39.6274 46.333L42.1697 42.0059L43.9574 43.0222L52.5748 28.3392C55.2316 30.0051 57.419 32.3027 58.935 35.0198C60.4511 37.7369 61.247 40.786 61.2493 43.8856C61.2493 54.049 52.8398 62.3183 42.5085 62.3183H27.409V69.2974H69.9126V62.3183H60.185L60.1827 62.3172ZM22.4529 8.65041V3.11005H23.1461L23.136 1.78134H16.8205L16.8306 3.11005H17.5752V8.65041H12.8628V3.11005H13.5538L13.5459 1.78134H7.22484L7.23714 3.11005H7.98172V8.65041H1.0625V36.4028H29.3129V8.65041H22.4552H22.4529ZM26.9204 34.0534H3.45164V10.9999H7.9806V28.7308C7.9806 30.0727 9.09523 31.1627 10.4402 31.1627C11.7873 31.1572 12.8617 30.0705 12.8617 28.7308V10.9999H17.574V28.7308C17.574 30.0727 18.6898 31.1627 20.0347 31.1627C21.3819 31.1572 22.4563 30.0705 22.454 28.7308V10.9999H26.9204V34.0534Z" fill="#212B51"/>
</svg>
