<svg width="71" height="71" viewBox="0 0 71 71" fill="none" xmlns="http://www.w3.org/2000/svg">
<path fill-rule="evenodd" clip-rule="evenodd" d="M35.5014 20.7492C35.5014 12.6488 42.0677 6.08252 50.1681 6.08252C58.2685 6.08252 64.8348 12.6488 64.8348 20.7492C64.8348 28.8496 58.2685 35.4159 50.1681 35.4159H36.9681C36.5791 35.4159 36.2061 35.2613 35.931 34.9863C35.656 34.7112 35.5014 34.3382 35.5014 33.9492V20.7492ZM11.7092 13.4159C10.6292 13.4178 9.59395 13.8477 8.83027 14.6114C8.06659 15.375 7.6367 16.4103 7.63477 17.4903C7.63477 42.7829 28.1344 63.2825 53.427 63.2825C54.507 63.2806 55.5423 62.8507 56.3059 62.087C57.0696 61.3233 57.4995 60.2881 57.5014 59.2081V50.1089C57.4995 49.0289 57.0696 47.9937 56.3059 47.23C55.5423 46.4664 54.507 46.0365 53.427 46.0345C50.4239 46.0372 47.4394 45.5614 44.586 44.6251C43.8696 44.3844 43.1004 44.3485 42.3648 44.5214C41.6291 44.6942 40.9563 45.0689 40.4221 45.6033L35.4516 50.5739C29.0754 47.085 23.8321 41.8427 20.342 35.4672L25.314 30.4952C25.8471 29.9658 26.2238 29.2995 26.4026 28.5698C26.5814 27.84 26.5554 27.0751 26.3274 26.3592L26.3245 26.3489L26.3216 26.3387C25.3815 23.4835 24.9046 20.4962 24.9092 17.4903C24.9072 16.4103 24.4773 15.375 23.7137 14.6114C22.95 13.8477 21.9148 13.4178 20.8348 13.4159H11.7092ZM48.7014 28.0825V22.2159H42.8348V19.2825H48.7014V13.4159H51.6348V19.2825H57.5014V22.2159H51.6348V28.0825H48.7014Z" fill="#212B51"/>
</svg>
