<svg width="78" height="71" viewBox="0 0 78 71" fill="none" xmlns="http://www.w3.org/2000/svg">
<path d="M50.1534 34.8596H47.473L44.6497 39.5453L40.9406 33.3274C42.7988 32.2242 43.7951 30.2839 43.7951 27.7958C43.7951 24.011 41.7605 21.3447 37.1307 21.3447H29.4688V43.4963H33.3303V34.3437H36.7165C36.9998 34.3437 37.2411 34.3041 37.5088 34.2843L42.6499 42.8638L38.3863 49.9397H41.0871L43.9931 45.1055L46.892 49.9397H50.852L45.9894 41.7881L50.1534 34.8607V34.8596ZM36.0732 31.6742H33.3303V24.011H35.8079C38.888 24.011 39.9347 25.4706 39.9347 27.8574C39.9347 30.6502 38.1414 31.6742 36.072 31.6742H36.0732Z" fill="#212B51"/>
<path d="M22.7106 68.0419C22.7106 69.3376 23.8953 70.3958 25.3562 70.3958H54.3642C55.8274 70.3958 57.0038 69.3376 57.0038 68.0419V14.4532H22.7106V68.0419ZM26.1124 17.9433H53.6271V52.6406H26.1124V17.9433ZM21.0301 12.1708H58.6771C59.4429 12.1708 60.0563 11.6209 60.0563 10.9367V1.99535C60.0563 1.31339 59.4429 0.765625 58.6771 0.765625H21.0301C20.2702 0.765625 19.6484 1.31339 19.6484 1.99535V10.9367C19.6484 11.6209 20.2714 12.1708 21.0301 12.1708ZM55.1396 2.37153H57.0002V10.5352H55.1396V2.37153ZM50.9851 2.37153H52.8385V10.5352H50.9851V2.37153ZM46.8199 2.37153H48.6828V10.5352H46.8199V2.37153Z" fill="#212B51"/>
</svg>
