<svg width="78" height="71" viewBox="0 0 78 71" fill="none" xmlns="http://www.w3.org/2000/svg">
<path d="M4.70115 4.9502C4.67014 4.89847 4.65053 4.84158 4.64345 4.78282C4.63636 4.72405 4.64194 4.66457 4.65987 4.60781C4.6778 4.55104 4.70772 4.49813 4.7479 4.45211C4.78808 4.40609 4.83773 4.36789 4.89398 4.3397L8.42919 2.5599C8.48521 2.53135 8.54681 2.51337 8.61041 2.507C8.67401 2.50062 8.73835 2.50598 8.79969 2.52276C8.86103 2.53955 8.91816 2.56742 8.96775 2.60476C9.01735 2.6421 9.05843 2.68817 9.08861 2.7403L10.5063 5.1306C15.8662 3.6456 21.8047 5.7576 24.5935 10.4777L17.7433 13.9339C18.2874 14.8559 18.4129 15.94 18.0921 16.9475C17.7713 17.955 17.0306 18.8035 16.0329 19.3063C15.0351 19.8091 13.8621 19.9251 12.7719 19.6286C11.6817 19.3322 10.7635 18.6476 10.2194 17.7256L3.36681 21.1774C0.575544 16.4595 1.8575 10.7021 6.11642 7.3416L4.70115 4.9491V4.9502ZM52.9645 48.0064H76.0195V70.0306H52.9645V48.0064ZM50.322 59.0141H31.7021C30.1416 59.0138 28.645 58.4411 27.5412 57.4218C26.4373 56.4025 25.8164 55.02 25.8148 53.5779C25.8157 52.1357 26.4365 50.753 27.5405 49.7337C28.6446 48.7145 30.1415 48.1422 31.7021 48.1428H50.322V59.0141ZM10.1766 63.424C10.1766 62.2085 11.2419 61.2218 12.5584 61.2218H50.3208V70.0284H10.1766V63.4229V63.424ZM24.4959 52.4515C24.494 54.1932 23.7438 55.8629 22.4101 57.0935C21.0764 58.3242 19.2685 59.015 17.3839 59.0141C16.4505 59.0148 15.5262 58.8457 14.6636 58.5162C13.801 58.1868 13.017 57.7036 12.3565 57.0942C11.696 56.4848 11.1718 55.7612 10.8139 54.9646C10.456 54.168 10.2714 53.314 10.2706 52.4515C10.2706 48.8292 13.4547 45.8922 17.3839 45.8922C21.3107 45.8922 24.4959 48.8292 24.4959 52.4515ZM63.3713 34.0738L59.3707 23.5479C58.5947 21.5635 57.1044 20.0147 52.8978 20.0147H34.4291C30.2237 20.0147 28.7311 21.5635 27.9585 23.5479L23.9591 34.0738C23.6603 34.7536 23.5056 36.2815 25.1328 37.3045L34.5374 43.0311C35.1969 43.4329 36.0019 43.5767 36.7759 43.4309C37.5499 43.2852 38.2298 42.8617 38.6665 42.2534C38.8819 41.9514 39.0309 41.6132 39.1048 41.2581C39.1787 40.9029 39.1762 40.5378 39.0974 40.1835C39.0186 39.8293 38.865 39.4928 38.6455 39.1934C38.4259 38.894 38.1447 38.6375 37.8179 38.4386L30.3534 33.8923L32.4543 28.5364H35.3623L33.6589 32.8814L39.326 36.3332C39.9533 36.7128 40.4927 37.2038 40.9131 37.7777C41.3334 38.3515 41.6262 38.9968 41.7744 39.6761C41.9284 40.3551 41.9348 41.0556 41.7934 41.7369C41.652 42.4182 41.3656 43.0667 40.9507 43.6449C40.6182 44.1033 40.2101 44.5108 39.7414 44.8527H47.5879C47.12 44.5096 46.7117 44.1023 46.3773 43.6449C45.9627 43.0666 45.6762 42.4181 45.5344 41.7369C45.3926 41.0557 45.3984 40.3553 45.5513 39.6761C45.7005 38.997 45.9938 38.352 46.4143 37.7782C46.8347 37.2044 47.374 36.7133 48.0009 36.3332L53.6715 32.8814L51.9611 28.5364H54.8714L56.977 33.8923L49.509 38.4386C48.1366 39.2746 47.7533 40.9873 48.6615 42.2534C49.5697 43.5195 51.4195 43.8693 52.7919 43.0311L62.1953 37.3045C63.8237 36.2804 63.6701 34.7536 63.3725 34.0738H63.3713ZM45.5013 9.7132C45.2765 10.164 44.9167 10.5458 44.4644 10.8135C44.0121 11.0811 43.4863 11.2234 42.9493 11.2235C42.4114 11.2237 41.8847 11.0815 41.4314 10.8139C40.9781 10.5463 40.6172 10.1643 40.3913 9.7132H35.2396C35.1563 10.1312 35.1075 10.5591 35.1075 11.0002C35.1091 12.9276 35.939 14.7756 37.4147 16.1376C38.8903 17.4997 40.891 18.2644 42.9766 18.2635C44.0095 18.2642 45.0324 18.0769 45.9869 17.7123C46.9414 17.3476 47.8089 16.8128 48.5397 16.1383C49.2706 15.4639 49.8505 14.663 50.2464 13.7813C50.6422 12.8997 50.8463 11.9547 50.8469 11.0002C50.8469 10.558 50.7958 10.1312 50.716 9.7132H45.5025H45.5013ZM40.2175 7.9983C40.3711 7.43631 40.7232 6.93773 41.218 6.5815C41.7128 6.22526 42.322 6.03171 42.9493 6.0315C44.2657 6.0315 45.3763 6.8719 45.6763 7.9983H50.1399C49.515 6.72719 48.5074 5.64921 47.2373 4.89316C45.9673 4.1371 44.4886 3.73493 42.9778 3.7347C41.4672 3.7352 39.9885 4.13748 38.7186 4.89351C37.4486 5.64953 36.4409 6.72736 35.8158 7.9983H40.2187H40.2175Z" fill="#212B51"/>
</svg>
