<svg width="71" height="71" viewBox="0 0 71 71" fill="none" xmlns="http://www.w3.org/2000/svg">
<path d="M37.5013 17.1076V15.7227H39.3107V14.8472C39.3107 13.2897 40.6713 12.0303 42.3553 12.0303C44.036 12.0303 45.3966 13.2897 45.3966 14.8472V15.7227H47.1664V17.1076H37.5013ZM59.9157 52.1151C59.9157 53.8282 59.2352 55.4712 58.0238 56.6826C56.8124 57.8939 55.1695 58.5745 53.4564 58.5745C51.7432 58.5745 50.1003 57.8939 48.8889 56.6826C47.6775 55.4712 46.997 53.8282 46.997 52.1151C46.997 50.402 47.6775 48.759 48.8889 47.5477C50.1003 46.3363 51.7432 45.6558 53.4564 45.6558C55.1695 45.6558 56.8124 46.3363 58.0238 47.5477C59.2352 48.759 59.9157 50.402 59.9157 52.1151ZM56.5466 52.1151C56.5466 51.2958 56.2212 50.5101 55.6418 49.9307C55.0625 49.3514 54.2768 49.026 53.4575 49.026C52.6382 49.026 51.8524 49.3514 51.2731 49.9307C50.6938 50.5101 50.3683 51.2958 50.3683 52.1151C50.3605 52.5257 50.4347 52.9337 50.5865 53.3153C50.7383 53.6969 50.9646 54.0444 51.2522 54.3375C51.5398 54.6306 51.883 54.8634 52.2616 55.0223C52.6403 55.1813 53.0468 55.2631 53.4575 55.2631C53.8681 55.2631 54.2746 55.1813 54.6533 55.0223C55.0319 54.8634 55.3751 54.6306 55.6627 54.3375C55.9503 54.0444 56.1767 53.6969 56.3284 53.3153C56.4802 52.9337 56.5544 52.5257 56.5466 52.1151ZM22.9261 52.0535C22.9261 52.902 22.7589 53.7422 22.4341 54.5261C22.1094 55.31 21.6333 56.0223 21.0332 56.6221C20.4331 57.222 19.7208 57.6978 18.9367 58.0223C18.1527 58.3468 17.3125 58.5137 16.464 58.5134C14.7711 58.4822 13.158 57.7877 11.9718 56.5795C10.7857 55.3712 10.1211 53.7456 10.1211 52.0524C10.1211 50.3592 10.7857 48.7336 11.9718 47.5254C13.158 46.3171 14.7711 45.6227 16.464 45.5914C18.1777 45.592 19.821 46.273 21.0327 47.4848C22.2445 48.6965 22.9255 50.3398 22.9261 52.0535ZM19.568 52.059C19.568 51.6532 19.488 51.2514 19.3327 50.8766C19.1773 50.5017 18.9496 50.1611 18.6626 49.8743C18.3755 49.5874 18.0348 49.36 17.6598 49.2049C17.2848 49.0498 16.883 48.9701 16.4772 48.9704C15.8658 48.9704 15.2681 49.1517 14.7598 49.4915C14.2515 49.8312 13.8553 50.314 13.6214 50.8789C13.3876 51.4438 13.3265 52.0654 13.4459 52.665C13.5654 53.2646 13.8599 53.8154 14.2924 54.2475C14.7249 54.6797 15.2758 54.9739 15.8755 55.0929C16.4752 55.2119 17.0968 55.1504 17.6615 54.9161C18.2262 54.6818 18.7088 54.2854 19.0482 53.7768C19.3875 53.2682 19.5684 52.6704 19.568 52.059Z" fill="#212B51"/>
<path d="M64.3047 33.7411C66.2351 34.1172 67.39 34.9499 68.2612 39.7137L69.6394 48.3097C70.1355 51.1068 68.5549 52.1275 66.5838 52.1275H61.8497C61.8497 47.4924 58.0945 43.7218 53.4594 43.7218C48.8243 43.7218 45.0647 47.4924 45.0647 52.1275H24.8336C24.8336 47.4924 21.0763 43.7218 16.4412 43.7218C11.8038 43.7218 8.04758 47.4924 8.04758 52.1275H4.12522C2.7437 52.1275 1.66797 51.0815 1.66797 49.7319V21.4658C1.66797 19.9259 2.88339 18.6885 4.3738 18.6885H55.1665C57.0969 18.6885 58.5081 19.6465 59.2054 21.3261L64.3047 33.7422V33.7411ZM47.3735 21.5692V33.311H60.9499L56.1872 21.5692H47.3724H47.3735ZM35.228 31.8041V24.5995H28.0235V31.8041H20.8178V39.0097H28.0235V46.2132H35.228V39.0097H42.4326V31.8041H35.228Z" fill="#212B51"/>
</svg>
