<svg width="72" height="71" viewBox="0 0 72 71" fill="none" xmlns="http://www.w3.org/2000/svg">
<g clip-path="url(#clip0_30_137)">
<path d="M70.2289 70.0977H64.0326V59.6323H8.38912V70.0977H2.13672V30.6451C2.13672 28.939 3.48092 27.553 5.19252 27.553V27.5508C6.89972 27.5508 8.38912 28.939 8.38912 30.6451V52.1391H64.0326V36.9085C64.0326 35.2013 65.4252 33.8153 67.1335 33.8153C68.8418 33.8153 70.2278 35.2013 70.2278 36.9085L70.2289 70.0988V70.0977Z" fill="#212B51"/>
<path d="M16.7697 34.1705C18.0313 34.1705 19.2412 34.6717 20.1333 35.5638C21.0254 36.4559 21.5266 37.6658 21.5266 38.9274C21.5266 40.1891 21.0254 41.399 20.1333 42.2911C19.2412 43.1832 18.0313 43.6844 16.7697 43.6844C16.1443 43.6848 15.525 43.5621 14.9471 43.3232C14.3692 43.0843 13.844 42.7339 13.4015 42.292C12.959 41.8501 12.6079 41.3254 12.3682 40.7478C12.1285 40.1703 12.0049 39.5511 12.0045 38.9258C12.0049 38.3006 12.1285 37.6816 12.3683 37.1042C12.608 36.5268 12.9592 36.0024 13.4017 35.5607C13.8443 35.1191 14.3695 34.769 14.9474 34.5305C15.5253 34.2919 16.1445 34.1696 16.7697 34.1705ZM21.5272 47.4211C21.5269 48.0431 21.2797 48.6395 20.84 49.0795C20.4003 49.5194 19.804 49.7668 19.182 49.7674H12.4192C11.7974 49.7668 11.2013 49.5193 10.7619 49.0793C10.3225 48.6393 10.0759 48.0429 10.0762 47.4211C10.0762 46.1308 11.1234 45.0825 12.4192 45.0825H19.182C19.803 45.0819 20.3988 45.3279 20.8386 45.7664C21.2783 46.2049 21.526 46.8001 21.5272 47.4211ZM57.9614 36.0207C60.0514 36.0207 61.7399 37.6586 61.7608 39.7376L61.7685 49.7707H23.5853V36.0251L57.9614 36.0218V36.0207ZM35.3344 33.8438V12.1287C35.3332 11.0059 34.8868 9.92947 34.0931 9.13537C33.2994 8.34126 32.2232 7.89432 31.1005 7.89258C29.9839 7.89374 28.9133 8.33768 28.1235 9.12705C27.3337 9.91641 26.8892 10.9868 26.8875 12.1034C26.8875 12.2926 26.8124 12.4742 26.6788 12.6082C26.5452 12.7422 26.3639 12.8178 26.1747 12.8184C25.9854 12.8178 25.8041 12.7422 25.6705 12.6082C25.5369 12.4742 25.4619 12.2926 25.4619 12.1034C25.4619 11.8545 25.363 11.6159 25.1871 11.4399C25.0111 11.2639 24.7724 11.1651 24.5236 11.1651C24.2747 11.1651 24.0361 11.2639 23.8601 11.4399C23.6841 11.6159 23.5853 11.8545 23.5853 12.1034C23.5853 12.7907 23.8581 13.45 24.3438 13.9363C24.8295 14.4226 25.4884 14.6963 26.1758 14.6972C27.6058 14.6972 28.7663 13.5356 28.7663 12.1034C28.7663 10.8186 29.8135 9.77138 31.1016 9.77138C32.3974 9.77138 33.4545 10.8274 33.4545 12.1287V33.8438H35.3355H35.3344Z" fill="#212B51"/>
<path d="M27.4472 27.2592H29.8364C29.8364 27.2592 30.3061 25.2231 30.3061 21.9737C30.3061 18.7254 29.8364 16.6904 29.8364 16.6904H23.7303C23.7303 16.6904 23.1836 18.3349 23.1836 21.9737C23.1836 25.6136 23.7303 27.2592 23.7303 27.2592H26.1602C26.1602 27.2647 26.1547 27.2691 26.1547 27.2768C26.1569 27.3175 26.2317 31.2379 23.6632 33.8438H25.355C27.489 30.9937 27.4505 27.5298 27.4472 27.2592ZM44.4015 0.930664V25.5465H70.2317V0.930664H44.4015ZM46.6092 6.52306C46.6088 6.09099 46.6936 5.66309 46.8589 5.26389C47.0243 4.8647 47.2668 4.50207 47.5725 4.1968C47.8783 3.89154 48.2413 3.64965 48.6408 3.48501C49.0403 3.32036 49.4683 3.23621 49.9004 3.23736H64.7493C65.181 3.23693 65.6086 3.32161 66.0075 3.48655C66.4065 3.65149 66.769 3.89346 67.0744 4.19862C67.3797 4.50379 67.622 4.86615 67.7872 5.265C67.9524 5.66385 68.0373 6.09135 68.0372 6.52306V15.4485H66.044L64.8098 12.0935C64.7727 11.9933 64.7057 11.907 64.6179 11.8462C64.5301 11.7855 64.4257 11.7532 64.3189 11.7538C64.2121 11.7544 64.1081 11.7878 64.021 11.8496C63.9338 11.9113 63.8678 11.9984 63.8319 12.099L63.14 14.0614L61.5098 7.23146C61.4803 7.11328 61.4104 7.00914 61.3122 6.93703C61.214 6.86492 61.0937 6.82938 60.9721 6.83656C60.8505 6.84373 60.7352 6.89317 60.6462 6.97633C60.5572 7.05948 60.5 7.17113 60.4846 7.29196L59.3934 17.0039C58.9512 16.3417 58.5123 15.6784 58.5123 15.6784C58.4641 15.6075 58.3994 15.5495 58.3236 15.5094C58.2479 15.4693 58.1635 15.4484 58.0778 15.4485H56.0714C55.8668 14.8864 54.8405 12.0935 54.8405 12.0935C54.8029 11.9932 54.7356 11.9069 54.6475 11.8461C54.5594 11.7854 54.4547 11.7531 54.3477 11.7536C54.1277 11.7536 53.9341 11.8944 53.8626 12.099L53.1674 14.0614L51.5372 7.23146C51.5095 7.11175 51.4403 7.0057 51.3419 6.93211C51.2435 6.85851 51.1223 6.82211 50.9996 6.82936C50.8769 6.8366 50.7608 6.88703 50.6718 6.9717C50.5827 7.05637 50.5265 7.16982 50.5131 7.29196C50.5131 7.29196 49.6672 14.8424 49.4219 17.0039L48.5408 15.6784C48.4933 15.6076 48.4291 15.5496 48.3539 15.5095C48.2787 15.4694 48.1948 15.4485 48.1096 15.4485H46.6103V6.52416H46.6092V6.52306ZM64.7493 23.4939H49.9004C49.468 23.4944 49.0398 23.4097 48.6402 23.2445C48.2407 23.0793 47.8776 22.8369 47.5719 22.5312C47.2661 22.2255 47.0237 21.8624 46.8585 21.4628C46.6934 21.0633 46.6086 20.635 46.6092 20.2027V16.488H47.828C48.0843 16.8708 49.3449 18.7694 49.3449 18.7694C49.4047 18.8574 49.49 18.9251 49.5893 18.9634C49.6886 19.0018 49.7972 19.0089 49.9007 18.9839C50.0042 18.959 50.0976 18.9031 50.1685 18.8236C50.2394 18.7442 50.2844 18.6451 50.2975 18.5395C50.2975 18.5395 50.8563 13.5565 51.2171 10.3687C51.8177 12.9009 52.5635 16.0183 52.5635 16.0183C52.5891 16.1274 52.6495 16.2253 52.7357 16.2971C52.8218 16.369 52.9289 16.4108 53.0409 16.4165C53.1531 16.4232 53.2644 16.3931 53.3579 16.3307C53.4514 16.2684 53.5221 16.1772 53.559 16.0711L54.3587 13.8073L55.2222 16.1481C55.2581 16.2479 55.324 16.3341 55.4108 16.395C55.4977 16.4558 55.6012 16.4883 55.7073 16.488H57.7973L59.3153 18.7694C59.374 18.8583 59.4588 18.9269 59.5581 18.9657C59.6574 19.0045 59.7662 19.0116 59.8697 18.9861C59.9736 18.9614 60.0674 18.9053 60.1383 18.8254C60.2092 18.7454 60.2536 18.6456 60.2657 18.5395L61.1875 10.3654C61.6358 12.2494 62.0846 14.1334 62.5339 16.0172C62.5595 16.1263 62.6199 16.2242 62.7061 16.296C62.7922 16.3679 62.8993 16.4097 63.0113 16.4154C63.1235 16.4221 63.2348 16.392 63.3283 16.3296C63.4219 16.2673 63.4925 16.1761 63.5294 16.07C63.5294 16.07 63.9562 14.8699 64.3291 13.8062C64.7273 14.8952 65.1904 16.147 65.1904 16.147C65.2264 16.2467 65.2923 16.3328 65.3792 16.3937C65.466 16.4545 65.5695 16.4871 65.6755 16.4869H68.0339V20.2016C68.0342 20.6335 67.9494 21.0612 67.7844 21.4604C67.6194 21.8595 67.3773 22.2223 67.0721 22.5279C66.7669 22.8335 66.4045 23.076 66.0056 23.2416C65.6066 23.4071 65.179 23.4925 64.7471 23.4928L64.7493 23.4939Z" fill="#212B51"/>
</g>
<defs>
<clipPath id="clip0_30_137">
<rect width="70.4" height="70.4" fill="white" transform="translate(0.800781 0.21582)"/>
</clipPath>
</defs>
</svg>
