<svg width="74" height="71" viewBox="0 0 74 71" fill="none" xmlns="http://www.w3.org/2000/svg">
<path fill-rule="evenodd" clip-rule="evenodd" d="M52.1207 20.4707C52.1207 25.5468 50.7983 32.1674 48.764 31.1627C47.9322 33.7539 46.1858 35.9906 43.8213 37.493C41.4568 38.9954 38.6201 39.671 35.7927 39.4049C32.9654 39.1389 30.3217 37.9477 28.3106 36.0335C26.2994 34.1194 25.0449 31.6003 24.7599 28.904C22.7409 25.5351 20.0931 18.784 26.9003 13.5216C27.0233 13.4835 27.0971 13.1667 27.2078 12.7003C27.6291 10.9359 28.5625 7.01403 34.4501 7.76349C38.9908 8.33989 52.1207 10.5766 52.1207 20.4722V20.4707ZM46.2684 23.671C46.2684 23.671 45.5734 25.6099 46.2254 27.7703C46.2169 30.0738 45.2618 32.2823 43.5652 33.9217C41.8686 35.561 39.5657 36.5004 37.1511 36.5383C34.7364 36.5761 32.4024 35.7093 30.6503 34.124C28.8981 32.5387 27.8676 30.3612 27.7798 28.0592C28.0028 27.2526 28.0028 25.8871 28.0012 24.3691C27.9997 21.6308 27.9966 18.3998 29.3113 17.0827C38.5202 22.9332 46.2684 23.671 46.2684 23.671Z" fill="#212B51"/>
<path d="M20.0858 53.0161C20.0858 51.4292 20.9668 50.0388 22.2892 49.2644C22.2389 49.0818 22.1917 48.8985 22.1478 48.7144C21.9144 47.7124 21.7323 46.7002 21.6019 45.6813C21.4698 44.7051 21.3902 43.7231 21.3636 42.7392C14.8732 45.1695 9.32227 49.4052 9.32227 53.8521V61.8161H64.6775V53.8521C64.6775 49.5929 59.5879 45.5288 53.4557 43.0575V43.0985C53.4834 43.9932 53.4311 45.0199 53.3297 46.0069C53.2374 46.9221 53.1005 47.8344 52.936 48.6161H53.914C54.1994 48.6163 54.4792 48.6922 54.722 48.8355C54.9648 48.9787 55.161 49.1836 55.2886 49.4272L56.8263 52.3605C56.9339 52.5644 56.9892 52.7888 56.9892 53.0161V55.9495C56.9892 56.3384 56.8272 56.7115 56.5389 56.9865C56.2505 57.2616 55.8594 57.4161 55.4516 57.4161H52.3763V54.4828H53.914V53.3623L52.9637 51.5495H48.7136L47.7634 53.3623V54.4828H49.301V57.4161H46.2257C45.8179 57.4161 45.4268 57.2616 45.1385 56.9865C44.8501 56.7115 44.6881 56.3384 44.6881 55.9495V53.0161C44.6881 52.7888 44.7434 52.5644 44.8511 52.3605L46.3887 49.4272C46.5163 49.1836 46.7125 48.9787 46.9553 48.8355C47.1981 48.6922 47.4779 48.6163 47.7634 48.6161H49.7854C49.8192 48.49 49.853 48.3507 49.8869 48.1967C50.0406 47.5059 50.1775 46.6303 50.2697 45.7253C50.362 44.8189 50.405 43.9199 50.382 43.1807C50.3762 42.8744 50.3511 42.5688 50.3066 42.2655C50.2728 42.0572 50.239 41.9619 50.2328 41.9413C50.2313 41.9369 50.2298 41.9355 50.2328 41.9384L50.2374 41.9369C49.4216 41.6951 48.5963 41.4833 47.7634 41.3019C46.9899 41.1332 46.1904 42.1481 45.8413 42.7832H27.774C27.7291 42.7015 27.685 42.6193 27.6418 42.5368C27.3158 41.9179 26.9145 41.1537 26.2364 41.3019C25.6444 41.4295 25.0524 41.5761 24.4604 41.7375C24.4413 41.9947 24.4331 42.2525 24.4358 42.5104C24.4419 43.3215 24.5234 44.3144 24.6541 45.3176C24.7848 46.3179 24.9616 47.2917 25.1462 48.0603C25.1984 48.2817 25.2507 48.4812 25.2999 48.6528C26.179 48.763 27.0062 49.1126 27.6824 49.6596C28.3586 50.2066 28.8552 50.9279 29.1128 51.7372C29.3703 52.5464 29.3779 53.4094 29.1346 54.2226C28.8913 55.0359 28.4074 55.765 27.7409 56.3228C27.0744 56.8805 26.2535 57.2433 25.3765 57.3675C24.4994 57.4918 23.6034 57.3723 22.7957 57.0234C21.9881 56.6745 21.3029 56.111 20.8223 55.4003C20.3417 54.6896 20.086 53.8618 20.0858 53.0161Z" fill="#212B51"/>
<path d="M26.2354 53.016C26.2354 53.8579 25.5251 54.5047 24.6978 54.5047C23.8705 54.5047 23.1602 53.8593 23.1602 53.016C23.1602 52.1741 23.8705 51.5273 24.6978 51.5273C25.5251 51.5273 26.2354 52.1727 26.2354 53.016Z" fill="#212B51"/>
</svg>
